#!OML:ASF I:\golf\golf\golf 2\Subject 1\2002-09-07\Subject1.ASF
:FULLY-SPECIFIED
:DEGREES
421
root -10.1379 18.0945 5.07475 -153.254 74.7979 -169.152
lowerback 2.83988 2.06734 0.593898
upperback 5.16701 2.86613 4.13697
thorax 3.55525 1.4583 3.95686
lowerneck -11.7555 6.69688 7.54582
upperneck 34.359 12.6834 -7.89388
head 14.9148 5.94118 -2.34125
rclavicle 1.23246e-014 -3.02153e-014
rhumerus -11.9954 24.4354 -100.144
rradius 37.9254
rwrist -44.6254
rhand -31.086 -12.0522
rfingers 7.12502
rthumb -4.36622 -41.9872
lclavicle 1.23246e-014 -3.02153e-014
lhumerus -8.66953 -38.9639 106.891
lradius 34.1003
lwrist 46.3322
lhand -3.79275 58.5951
lfingers 7.12502
lthumb 21.953 87.3694
rfemur -24.0502 -7.21391 15.7433
rtibia 23.0562
rfoot -7.42808 -15.0546
rtoes 0.282182
lfemur -29.8116 0.645722 -12.8072
ltibia 22.4185
lfoot -7.91692 -14.2881
ltoes -6.50043
422
root -10.1356 18.0947 5.07559 -153.376 74.7443 -169.258
lowerback 2.84851 2.03462 0.543429
upperback 5.17598 2.82275 4.15749
thorax 3.55928 1.43472 4.00672
lowerneck -11.7602 6.74363 7.35622
upperneck 34.2002 12.7481 -7.85539
head 14.829 5.94691 -2.28076
rclavicle -5.36719e-014 7.95139e-016
rhumerus -11.9979 24.4936 -100.133
rradius 37.9127
rwrist -44.5543
rhand -30.9832 -12.1615
rfingers 7.12502
rthumb -4.26688 -42.0985
lclavicle -5.36719e-014 7.95139e-016
lhumerus -8.62523 -38.8636 106.902
lradius 34.0783
lwrist 46.196
lhand -3.75067 58.5992
lfingers 7.12502
lthumb 21.9934 87.3688
rfemur -24.0177 -7.23338 15.7265
rtibia 23.0784
rfoot -7.52374 -15.0811
rtoes 0.614951
lfemur -29.7852 0.613205 -12.8119
ltibia 22.3966
lfoot -7.86196 -14.3173
ltoes -6.05661
423
root -10.1343 18.0934 5.07461 -153.731 74.6397 -169.619
lowerback 2.8368 1.97659 0.477659
upperback 5.177 2.74463 4.17333
thorax 3.56839 1.39302 4.06103
lowerneck -11.773 6.81854 7.21718
upperneck 34.1589 12.8665 -7.80066
head 14.8091 5.98474 -2.21266
rclavicle -2.66371e-014 -5.00937e-014
rhumerus -12.0153 24.6111 -100.101
rradius 37.9086
rwrist -44.5539
rhand -30.9645 -11.9903
rfingers 7.12502
rthumb -4.24888 -41.9276
lclavicle -2.66371e-014 -5.00937e-014
lhumerus -8.60591 -38.7574 106.924
lradius 34.0774
lwrist 46.1113
lhand -3.82768 58.6958
lfingers 7.12502
lthumb 21.9194 87.4741
rfemur -23.9929 -7.33807 15.6692
rtibia 23.0966
rfoot -7.5239 -15.1063
rtoes 0.500283
lfemur -29.7896 0.575372 -12.8945
ltibia 22.3698
lfoot -7.79639 -14.41
ltoes -6.01755
424
root -10.1324 18.0931 5.07437 -153.899 74.6016 -169.812
lowerback 2.77534 1.9468 0.404476
upperback 5.18148 2.70216 4.18024
thorax 3.60704 1.36831 4.1125
lowerneck -11.6462 6.92758 7.35895
upperneck 34.1059 13.0415 -7.91732
head 14.7978 6.06798 -2.25741
rclavicle -4.01545e-014 -5.725e-014
rhumerus -11.9877 24.7613 -100.093
rradius 37.8733
rwrist -44.6595
rhand -31.107 -11.9831
rfingers 7.12502
rthumb -4.38643 -41.9176
lclavicle -4.01545e-014 -5.725e-014
lhumerus -8.59574 -38.6969 106.921
lradius 34.0833
lwrist 46.1257
lhand -3.99907 58.7721
lfingers 7.12502
lthumb 21.7549 87.5696
rfemur -24.0115 -7.40932 15.6486
rtibia 23.1155
rfoot -7.42259 -15.1014
rtoes -0.0173225
lfemur -29.7999 0.565009 -12.9454
ltibia 22.3467
lfoot -7.81027 -14.4512
ltoes -6.27519
425
root -10.1305 18.0939 5.07586 -153.868 74.6108 -169.787
lowerback 2.75301 1.99038 0.415133
upperback 5.18294 2.75911 4.12837
thorax 3.62002 1.39723 4.0533
lowerneck -11.5582 6.97504 7.58304
upperneck 34.0197 13.0934 -8.04462
head 14.7742 6.10609 -2.341
rclavicle -1.74931e-014 -5.56597e-015
rhumerus -11.9026 24.6502 -100.132
rradius 37.8204
rwrist -44.6515
rhand -31.1769 -12.1151
rfingers 7.12502
rthumb -4.454 -42.0482
lclavicle -1.74931e-014 -5.56597e-015
lhumerus -8.61648 -38.8527 106.895
lradius 34.0739
lwrist 46.191
lhand -4.13995 58.8235
lfingers 7.12502
lthumb 21.6196 87.6366
rfemur -24.0218 -7.40596 15.6637
rtibia 23.1217
rfoot -7.34384 -15.101
rtoes -0.316411
lfemur -29.8035 0.628678 -12.9577
ltibia 22.3453
lfoot -7.83707 -14.4817
ltoes -6.35078
426
root -10.1299 18.0949 5.07642 -153.901 74.5536 -169.776
lowerback 2.81668 2.01842 0.516782
upperback 5.18383 2.79921 4.06332
thorax 3.58986 1.42225 3.92527
lowerneck -11.5872 6.97472 7.72505
upperneck 33.977 13.0821 -8.14245
head 14.7809 6.10596 -2.4055
rclavicle -2.42517e-014 -2.3059e-014
rhumerus -11.8919 24.4972 -100.176
rradius 37.8263
rwrist -44.6374
rhand -31.0696 -11.9636
rfingers 7.12502
rthumb -4.35033 -41.8989
lclavicle -2.42517e-014 -2.3059e-014
lhumerus -8.64343 -38.9793 106.876
lradius 34.0482
lwrist 46.1914
lhand -4.25481 58.9825
lfingers 7.12502
lthumb 21.5093 87.8082
rfemur -23.949 -7.44266 15.6898
rtibia 23.0947
rfoot -7.33282 -15.1351
rtoes -0.456219
lfemur -29.7792 0.653871 -12.9469
ltibia 22.3534
lfoot -7.82663 -14.5914
ltoes -6.03031
427
root -10.13 18.0937 5.07524 -153.829 74.4029 -169.643
lowerback 2.89394 2.00212 0.687676
upperback 5.18047 2.78219 4.04866
thorax 3.55228 1.42129 3.81035
lowerneck -11.6005 6.96668 7.78514
upperneck 33.9244 13.0724 -8.2221
head 14.7709 6.09946 -2.44908
rclavicle 9.26337e-014 4.05521e-014
rhumerus -11.9287 24.4478 -100.204
rradius 37.8503
rwrist -44.7132
rhand -31.027 -11.7702
rfingers 7.12502
rthumb -4.30925 -41.7064
lclavicle 9.26337e-014 4.05521e-014
lhumerus -8.68513 -39.0901 106.882
lradius 34.0664
lwrist 46.2157
lhand -4.28745 59.1169
lfingers 7.12502
lthumb 21.4779 87.9462
rfemur -23.8434 -7.52413 15.7871
rtibia 23.0591
rfoot -7.32801 -15.2063
rtoes -0.82817
lfemur -29.7473 0.567947 -12.8439
ltibia 22.3492
lfoot -7.78173 -14.6796
ltoes -5.74258
428
root -10.1292 18.0937 5.07456 -153.766 74.3318 -169.52
lowerback 2.95634 1.99175 0.769088
upperback 5.17807 2.7718 4.04863
thorax 3.51893 1.41987 3.76168
lowerneck -11.5988 6.98329 7.84271
upperneck 33.9221 13.1199 -8.31031
head 14.7886 6.11725 -2.48615
rclavicle -3.97569e-015 -5.56597e-015
rhumerus -11.9554 24.4618 -100.244
rradius 37.8469
rwrist -44.7341
rhand -31.0788 -11.7445
rfingers 7.12502
rthumb -4.35921 -41.6796
lclavicle -3.97569e-015 -5.56597e-015
lhumerus -8.74098 -39.2283 106.879
lradius 34.1402
lwrist 46.2995
lhand -4.27045 59.1462
lfingers 7.12502
lthumb 21.4942 87.9736
rfemur -23.746 -7.48907 15.8215
rtibia 23.0347
rfoot -7.39337 -15.2563
rtoes -0.537612
lfemur -29.6824 0.456576 -12.7554
ltibia 22.3399
lfoot -7.74628 -14.6151
ltoes -5.74582
429
root -10.1276 18.0956 5.07532 -153.85 74.3802 -169.584
lowerback 2.98095 1.99201 0.668658
upperback 5.16992 2.77191 4.06292
thorax 3.49139 1.41618 3.83147
lowerneck -11.6234 7.0442 7.85248
upperneck 33.9903 13.2539 -8.37355
head 14.8496 6.16792 -2.48835
rclavicle -5.96354e-015 -5.96354e-014
rhumerus -12.0094 24.5734 -100.255
rradius 37.8556
rwrist -44.7433
rhand -31.1047 -11.7733
rfingers 7.12502
rthumb -4.38424 -41.7079
lclavicle -5.96354e-015 -5.96354e-014
lhumerus -8.75434 -39.204 106.884
lradius 34.1748
lwrist 46.3323
lhand -4.2508 59.1975
lfingers 7.12502
lthumb 21.5131 88.0228
rfemur -23.7133 -7.44098 15.7698
rtibia 23.0125
rfoot -7.4597 -15.2503
rtoes 0.206031
lfemur -29.6302 0.375384 -12.7593
ltibia 22.3327
lfoot -7.76579 -14.4638
ltoes -5.87209
430
root -10.1271 18.095 5.07693 -153.817 74.3769 -169.572
lowerback 2.95976 1.96978 0.530183
upperback 5.15906 2.74079 4.14744
thorax 3.48407 1.39475 3.99811
lowerneck -11.6588 7.11354 7.76268
upperneck 34.0105 13.4029 -8.41395
head 14.8818 6.21396 -2.46085
rclavicle 7.71285e-014 3.65764e-014
rhumerus -12.1058 24.8054 -100.165
rradius 37.9391
rwrist -44.8149
rhand -31.0867 -11.8565
rfingers 7.12502
rthumb -4.36682 -41.7914
lclavicle 7.71285e-014 3.65764e-014
lhumerus -8.70808 -39.0796 106.918
lradius 34.1732
lwrist 46.3533
lhand -4.24624 59.1999
lfingers 7.12502
lthumb 21.5175 88.0247
rfemur -23.7424 -7.46427 15.7893
rtibia 23.0066
rfoot -7.50473 -15.2569
rtoes 0.581159
lfemur -29.6476 0.364125 -12.7517
ltibia 22.3167
lfoot -7.83677 -14.4064
ltoes -6.3128
